<svg width="41.01mm" height="41.01mm" version="1.1" viewBox="0 0 41.01 41.01" xmlns="http://www.w3.org/2000/svg">
 <g transform="translate(-1.8709 .054631)">
  <g transform="matrix(.99998 0 0 .99998 12.248 -146.95)">
   <g transform="matrix(.60507 0 0 .60507 -93.513 97.894)">
    <g fill="#ed6a1a">
     <g transform="matrix(1.4992 0 0 1.4992 -72.015 -47.352)">
      <path d="m147.42 99.64 28.357-0.9671s-1.4138-3.0619-3.2764-3.5753c-4.4972-1.2397-25.408 2.7493-26.786 3.4435-1.7325 0.8724-2.2497 21.595 0.40237 21.833 6.0301 0.54153 29.389-0.61355 33.856 0 2.6057 0.35787-1.0175-18.149-2.7591-19.21-2.3543-1.4349-29.066 0.58615-29.43-0.46889z" fill="#ed6a1a"/>
      <circle cx="175.51" cy="111.07" r="1.6527" fill="#fff"/>
     </g>
    </g>
   </g>
  </g>
 </g>
</svg>
