<svg width="202.06mm" height="30.736mm" version="1.1" viewBox="0 0 202.06 30.736" xmlns="http://www.w3.org/2000/svg">
    <g transform="translate(-2.4054 -4.6071)">
        <g transform="matrix(.99998 0 0 .99998 12.248 -146.95)">
            <g transform="matrix(.60507 0 0 .60507 -93.513 97.894)">
                <g fill="#ed6a1a">
                    <g transform="matrix(1.4992 0 0 1.4992 -72.015 -47.352)">
                        <path d="m147.42 99.64 28.357-0.9671s-1.4138-3.0619-3.2764-3.5753c-4.4972-1.2397-25.408 2.7493-26.786 3.4435-1.7325 0.8724-2.2497 21.595 0.40237 21.833 6.0301 0.54153 29.389-0.61355 33.856 0 2.6057 0.35787-1.0175-18.149-2.7591-19.21-2.3543-1.4349-29.066 0.58615-29.43-0.46889z"
                              fill="#ed6a1a"/>
                        <circle cx="175.51" cy="111.07" r="1.6527" fill="#fff"/>
                    </g>
                    <g fill="#141e42" stroke-width=".80965" aria-label="ExpenseTracker">
                        <path d="m210.04 126.07h18.395v-5.3437h-12.177v-3.5948h10.882v-4.955h-10.882v-3.4329h12.015v-5.3437h-18.233z"/>
                        <path d="m229.93 126.07h6.4772l2.7528-4.5016 2.7204 4.5016h6.6067l-5.8942-8.8737 5.7647-8.647h-6.5096l-2.5909 4.3073-2.5909-4.3073h-6.6391l5.7971 8.6794z"/>
                        <path d="m250.42 131.25h6.1533v-7.3192c1.1335 1.3278 2.688 2.5261 5.3437 2.5261 4.1454 0 7.7402-3.4653 7.7402-9.1652v-0.0648c0-5.6028-3.5948-9.068-7.7726-9.068-2.6232 0-4.113 1.263-5.3113 2.7204v-2.3318h-6.1533zm9.5862-9.9424c-1.9755 0-3.5624-1.6517-3.5624-3.9834v-0.0648c0-2.2994 1.5869-3.9511 3.5624-3.9511 2.0079 0 3.5948 1.6517 3.5948 3.9511v0.0648c0 2.3642-1.5869 3.9834-3.5948 3.9834z"/>
                        <path d="m280.99 126.49c3.4977 0 5.9266-1.425 7.6107-3.5624l-3.4005-2.8176c-1.263 1.2307-2.4289 1.7812-3.8863 1.7812-1.9108 0-3.3034-0.97158-3.7891-2.8823h11.724c0.0324-0.42102 0.0324-0.87442 0.0324-1.263 0-5.1493-2.7852-9.5862-8.8413-9.5862-5.1817 0-8.8413 4.0482-8.8413 9.1652v0.0648c0 5.4408 3.8863 9.1004 9.3919 9.1004zm-3.5624-10.623c0.32386-1.9108 1.425-3.1738 3.0443-3.1738 1.6841 0 2.8176 1.2307 3.0443 3.1738z"/>
                        <path d="m291.92 126.07h6.1533v-9.489c0-1.9108 1.1011-2.9471 2.5909-2.9471 1.4574 0 2.4613 1.0364 2.4613 2.9471v9.489h6.1533v-11.465c0-3.9835-2.2346-6.4448-5.959-6.4448-2.4937 0-4.113 1.3926-5.2465 2.85v-2.4613h-6.1533z"/>
                        <path d="m319.44 126.45c4.2749 0 7.1573-2.0079 7.1573-5.8618v-0.0648c0-3.4005-2.7528-4.5988-6.2181-5.5704-1.846-0.55056-2.85-0.87442-2.85-1.5545v-0.0648c0-0.48579 0.48579-0.84203 1.425-0.84203 1.3926 0 3.3681 0.61533 5.1817 1.6193l2.1051-3.8863c-2.0079-1.2954-4.6636-2.0403-7.222-2.0403-4.0482 0-7.0277 2.0727-7.0277 5.7971v0.0648c0 3.53 2.7528 4.6959 6.2181 5.6027 1.846 0.51818 2.8176 0.80965 2.8176 1.4898v0.0648c0 0.61533-0.48579 0.93919-1.5545 0.93919-1.8136 0-4.0158-0.6801-6.0238-2.0079l-2.2994 3.7244c2.4289 1.7488 5.3437 2.5909 8.2908 2.5909z"/>
                        <path d="m337.79 126.49c3.4977 0 5.9266-1.425 7.6107-3.5624l-3.4005-2.8176c-1.263 1.2307-2.4289 1.7812-3.8863 1.7812-1.9108 0-3.3034-0.97158-3.7891-2.8823h11.724c0.0324-0.42102 0.0324-0.87442 0.0324-1.263 0-5.1493-2.7852-9.5862-8.8413-9.5862-5.1817 0-8.8413 4.0482-8.8413 9.1652v0.0648c0 5.4408 3.8863 9.1004 9.3919 9.1004zm-3.5624-10.623c0.32386-1.9108 1.425-3.1738 3.0443-3.1738 1.6841 0 2.8176 1.2307 3.0443 3.1738z"/>
                        <path d="m358.86 105.76h7.6107v-2.3642h-17.812v2.3642h7.6107v20.306h2.5909z"/>
                        <path d="m370.44 119.39q0-1.8784 0.51817-3.3034 0.51817-1.4574 1.425-2.4289 0.9068-0.97158 2.1051-1.4574 1.2307-0.48579 2.5909-0.48579h0.19431v-2.688q-1.1983-0.0324-2.2346 0.29147-1.0363 0.32386-1.9108 0.97157-0.87442 0.61533-1.5545 1.4898t-1.1335 1.9108v-4.3721h-2.4937v16.743h2.4937z"/>
                        <path d="m386.3 111.3q2.3642 0 3.6596 1.1659 1.3278 1.1335 1.3278 3.4005v0.58295q-1.1335-0.32386-2.3318-0.51817-1.1983-0.19432-2.8176-0.19432-1.5869 0-2.9147 0.35624-1.2954 0.35625-2.267 1.0364-0.93919 0.6801-1.4574 1.7164-0.51817 1.004-0.51817 2.3318t0.51817 2.2994q0.55056 0.97158 1.425 1.6517 0.9068 0.64771 2.0079 0.97157 1.1335 0.32386 2.2994 0.32386 2.2346 0 3.692-0.87442 1.4898-0.87441 2.3642-2.0079v2.5261h2.3966v-10.234q0-3.3357-1.846-5.0198-1.846-1.7164-5.2789-1.7164-1.846 0-3.271 0.38863-1.425 0.35624-2.8176 1.004l0.74487 2.0403q1.1659-0.55055 2.3642-0.87441 1.2307-0.35625 2.7204-0.35625zm0.0971 6.2828q1.5545 0 2.7528 0.2267 1.2307 0.2267 2.1698 0.48579v1.6193q0 1.004-0.4534 1.846-0.42102 0.80965-1.1983 1.425-0.74487 0.58294-1.7812 0.93919-1.004 0.32386-2.1698 0.32386-0.84203 0-1.6193-0.22671-0.74487-0.2267-1.3278-0.64771-0.58294-0.4534-0.93919-1.0687-0.32385-0.61533-0.32385-1.425 0-1.6193 1.263-2.5585 1.263-0.93919 3.6272-0.93919z"/>
                        <path d="m413.38 123.22-1.5869-1.4897q-1.004 1.0687-2.267 1.7812-1.2307 0.71248-2.85 0.71248-1.3278 0-2.4613-0.48578-1.1011-0.51818-1.9432-1.3926-0.80964-0.90681-1.2954-2.1051-0.4534-1.1983-0.4534-2.5585 0-1.3602 0.4534-2.5261 0.4534-1.1983 1.263-2.0727 0.80965-0.9068 1.9108-1.3926 1.1011-0.51817 2.3642-0.51817 1.7164 0 2.8823 0.74487 1.1983 0.74488 2.2022 1.7812l1.6517-1.7488q-0.58294-0.61533-1.263-1.1659-0.68011-0.55056-1.4898-0.93919-0.80965-0.42101-1.7812-0.64772-0.97158-0.2267-2.1698-0.2267-1.846 0-3.4329 0.71249-1.5545 0.6801-2.7204 1.8784-1.1335 1.1983-1.7812 2.8176-0.64771 1.5869-0.64771 3.3681t0.64771 3.3681q0.64772 1.5869 1.7812 2.7852 1.1659 1.1659 2.7204 1.8784 1.5869 0.68011 3.4329 0.68011 2.3642 0 3.9511-0.90681 1.6193-0.9068 2.8823-2.3318z"/>
                        <path d="m425.08 116.51 7.0277-7.1896h-3.109l-9.0356 9.4243v-16.322h-2.4937v23.642h2.4937v-4.3721l3.4005-3.4329 5.9914 7.805h2.9795z"/>
                        <path d="m436.58 118.62h13.278q0.0324-0.2267 0.0324-0.42102 0-0.19431 0-0.35624 0-1.846-0.51817-3.4653-0.51817-1.6193-1.5221-2.8176-1.004-1.1983-2.4613-1.8784-1.4574-0.71249-3.3034-0.71249-1.7488 0-3.2386 0.68011-1.4574 0.6801-2.5261 1.8784-1.0687 1.1659-1.6841 2.7852-0.58294 1.5869-0.58294 3.4005 0 1.9431 0.64771 3.5624 0.68011 1.6193 1.8136 2.7852 1.1335 1.1335 2.6556 1.7812 1.5221 0.61533 3.2386 0.61533 2.3966 0 4.0158-0.84204 1.6193-0.87441 2.8823-2.2994l-1.5545-1.3926q-1.0364 1.0687-2.2994 1.7164-1.2307 0.64772-2.9795 0.64772-1.1011 0-2.1051-0.35625-1.004-0.38863-1.8136-1.1011-0.80965-0.74487-1.3278-1.7812-0.51817-1.0687-0.64772-2.4289zm0-1.846q0.12955-1.2307 0.58295-2.267t1.1659-1.7812q0.71248-0.77726 1.6517-1.1983 0.93919-0.4534 2.0403-0.4534 1.263 0 2.2022 0.48579 0.97157 0.4534 1.6193 1.2307 0.6801 0.77726 1.0363 1.8136 0.38863 1.0363 0.48579 2.1698z"/>
                        <path d="m456.78 119.39q0-1.8784 0.51817-3.3034 0.51818-1.4574 1.425-2.4289 0.9068-0.97158 2.1051-1.4574 1.2307-0.48579 2.5909-0.48579h0.19432v-2.688q-1.1983-0.0324-2.2346 0.29147-1.0364 0.32386-1.9108 0.97157-0.87441 0.61533-1.5545 1.4898-0.6801 0.87442-1.1335 1.9108v-4.3721h-2.4937v16.743h2.4937z"/>
                    </g>
                </g>
            </g>
        </g>
    </g>
</svg>
