<?xml version="1.0" standalone="no"?>
<!DOCTYPE svg PUBLIC "-//W3C//DTD SVG 20010904//EN"
 "http://www.w3.org/TR/2001/REC-SVG-20010904/DTD/svg10.dtd">
<svg version="1.0" xmlns="http://www.w3.org/2000/svg"
 width="320.000000pt" height="320.000000pt" viewBox="0 0 320.000000 320.000000"
 preserveAspectRatio="xMidYMid meet">
<metadata>
Created by potrace 1.11, written by Peter Selinger 2001-2013
</metadata>
<g transform="translate(0.000000,320.000000) scale(0.100000,-0.100000)"
fill="#000000" stroke="none">
<path d="M1847 2525 c-488 -47 -1400 -206 -1483 -260 -64 -41 -112 -490 -101
-935 10 -394 45 -594 113 -651 21 -17 429 -18 1699 -6 446 4 815 8 821 7 37
-1 53 168 34 360 -41 428 -182 989 -260 1038 -64 40 -456 46 -1350 23 -578
-15 -773 -13 -794 10 -8 8 -18 29 -24 47 -10 30 -10 32 14 32 14 0 213 7 442
15 229 8 682 24 1006 35 325 11 592 22 594 25 9 9 -55 109 -105 164 -83 92
-116 104 -302 107 -86 2 -223 -3 -304 -11z m777 -1085 c40 -36 52 -76 36 -125
-23 -68 -99 -101 -164 -70 -44 21 -66 59 -66 116 0 33 6 47 34 75 29 29 41 34
80 34 36 0 52 -6 80 -30z"/>
</g>
</svg>
